<svg width="22" height="18" viewBox="0 0 22 18" fill="none" xmlns="http://www.w3.org/2000/svg">
<path d="M0 17.5V14.7778C0 14.2431 0.137732 13.7407 0.413194 13.2708C0.688657 12.8009 1.06944 12.4444 1.55556 12.2014C2.38194 11.7801 3.31366 11.4236 4.35069 11.1319C5.38773 10.8403 6.53009 10.6944 7.77778 10.6944C9.02546 10.6944 10.1678 10.8403 11.2049 11.1319C12.2419 11.4236 13.1736 11.7801 14 12.2014C14.4861 12.4444 14.8669 12.8009 15.1424 13.2708C15.4178 13.7407 15.5556 14.2431 15.5556 14.7778V17.5H0ZM1.94444 15.5556H13.6111V14.7778C13.6111 14.5995 13.5666 14.4375 13.4774 14.2917C13.3883 14.1458 13.2708 14.0324 13.125 13.9514C12.5417 13.6597 11.7922 13.3681 10.8767 13.0764C9.96123 12.7847 8.92824 12.6389 7.77778 12.6389C6.62732 12.6389 5.59433 12.7847 4.67882 13.0764C3.76331 13.3681 3.01389 13.6597 2.43056 13.9514C2.28472 14.0324 2.16725 14.1458 2.07813 14.2917C1.989 14.4375 1.94444 14.5995 1.94444 14.7778V15.5556ZM7.77778 9.72222C7.77778 9.72222 7.51042 9.72222 6.9757 9.72222C6.44097 9.72222 5.79282 9.34144 5.03125 8.57986C4.26968 7.81829 3.88889 6.90278 3.88889 5.83333H3.64583C3.5 5.83333 3.38252 5.78877 3.2934 5.69965C3.20428 5.61053 3.15972 5.49306 3.15972 5.34722C3.15972 5.20139 3.20428 5.08391 3.2934 4.99479C3.38252 4.90567 3.5 4.86111 3.64583 4.86111H3.88889C3.88889 4.13194 4.06713 3.47569 4.42361 2.89236C4.78009 2.30903 5.25 1.84722 5.83333 1.50694V2.43056C5.83333 2.57639 5.87789 2.69387 5.96701 2.78299C6.05613 2.87211 6.17361 2.91667 6.31945 2.91667C6.46528 2.91667 6.58276 2.87211 6.67188 2.78299C6.761 2.69387 6.80556 2.57639 6.80556 2.43056V1.11806C6.95139 1.06944 7.10532 1.03299 7.26736 1.00868C7.4294 0.984375 7.59954 0.972221 7.77778 0.972221C7.95602 0.972221 8.12616 0.984375 8.2882 1.00868C8.45023 1.03299 8.60417 1.06944 8.75 1.11806V2.43056C8.75 2.57639 8.79456 2.69387 8.88368 2.78299C8.9728 2.87211 9.09028 2.91667 9.23611 2.91667C9.38195 2.91667 9.49942 2.87211 9.58854 2.78299C9.67766 2.69387 9.72222 2.57639 9.72222 2.43056V1.50694C10.3056 1.84722 10.7755 2.30903 11.1319 2.89236C11.4884 3.47569 11.6667 4.13194 11.6667 4.86111H11.9097C12.0556 4.86111 12.173 4.90567 12.2622 4.99479C12.3513 5.08391 12.3958 5.20139 12.3958 5.34722C12.3958 5.49306 12.3513 5.61053 12.2622 5.69965C12.173 5.78877 12.0556 5.83333 11.9097 5.83333H11.6667C11.6667 6.90278 11.2859 7.81829 10.5243 8.57986C9.76273 9.34144 8.84722 9.72222 7.77778 9.72222ZM7.77778 7.77778C7.77778 7.77778 7.91146 7.77778 8.17882 7.77778C8.44618 7.77778 8.77026 7.58738 9.15104 7.2066C9.53183 6.82581 9.72222 6.36806 9.72222 5.83333H5.83333C5.83333 6.36806 6.02373 6.82581 6.40451 7.2066C6.7853 7.58738 7.24306 7.77778 7.77778 7.77778ZM15.0694 11.6667L14.9236 10.9375C14.8264 10.9051 14.7332 10.8686 14.6441 10.8281C14.555 10.7876 14.4699 10.7269 14.3889 10.6458L13.7083 10.8889L13.2222 10.0139L13.7569 9.52778C13.7569 9.47917 13.7569 9.43056 13.7569 9.38194C13.7569 9.33333 13.7569 9.28472 13.7569 9.23611C13.7569 9.1875 13.7569 9.13889 13.7569 9.09028C13.7569 9.04167 13.7569 8.99306 13.7569 8.94444L13.2222 8.45833L13.7083 7.58333L14.3889 7.82639C14.4537 7.76157 14.5347 7.70486 14.6319 7.65625C14.7292 7.60764 14.8264 7.56713 14.9236 7.53472L15.0694 6.80556H16.0417L16.1875 7.53472C16.2847 7.56713 16.3819 7.60764 16.4792 7.65625C16.5764 7.70486 16.6574 7.76157 16.7222 7.82639L17.4028 7.58333L17.8889 8.45833L17.3542 8.94444C17.3542 8.99306 17.3542 9.04167 17.3542 9.09028C17.3542 9.13889 17.3542 9.1875 17.3542 9.23611C17.3542 9.28472 17.3542 9.33333 17.3542 9.38194C17.3542 9.43056 17.3542 9.47917 17.3542 9.52778L17.8889 10.0139L17.4028 10.8889L16.7222 10.6458C16.6412 10.7269 16.5561 10.7876 16.467 10.8281C16.3779 10.8686 16.2847 10.9051 16.1875 10.9375L16.0417 11.6667H15.0694ZM15.5556 9.96528C15.5556 9.96528 15.6042 9.96528 15.7014 9.96528C15.7986 9.96528 15.9201 9.89236 16.066 9.74653C16.2118 9.60069 16.2847 9.43056 16.2847 9.23611C16.2847 9.04167 16.2118 8.87153 16.066 8.72569C15.9201 8.57986 15.75 8.50694 15.5556 8.50694C15.3611 8.50694 15.191 8.57986 15.0451 8.72569C14.8993 8.87153 14.8264 9.04167 14.8264 9.23611C14.8264 9.43056 14.8993 9.60069 15.0451 9.74653C15.191 9.89236 15.3611 9.96528 15.5556 9.96528ZM17.3056 6.80556L17.1111 5.78472C16.9653 5.73611 16.8316 5.67535 16.7101 5.60243C16.5885 5.52951 16.4792 5.44444 16.3819 5.34722L15.3611 5.6875L14.6806 4.52083L15.5069 3.79167C15.4745 3.71065 15.4583 3.64583 15.4583 3.59722C15.4583 3.54861 15.4583 3.4838 15.4583 3.40278C15.4583 3.32176 15.4583 3.25694 15.4583 3.20833C15.4583 3.15972 15.4745 3.09491 15.5069 3.01389L14.6806 2.28472L15.3611 1.11806L16.3819 1.45833C16.4792 1.36111 16.5885 1.27604 16.7101 1.20312C16.8316 1.13021 16.9653 1.06944 17.1111 1.02083L17.3056 0H18.6667L18.8611 1.02083C19.0069 1.06944 19.1406 1.13021 19.2622 1.20312C19.3837 1.27604 19.4931 1.36111 19.5903 1.45833L20.6111 1.11806L21.2917 2.28472L20.4653 3.01389C20.4977 3.09491 20.5139 3.15972 20.5139 3.20833C20.5139 3.25694 20.5139 3.32176 20.5139 3.40278C20.5139 3.4838 20.5139 3.54861 20.5139 3.59722C20.5139 3.64583 20.4977 3.71065 20.4653 3.79167L21.2917 4.52083L20.6111 5.6875L19.5903 5.34722C19.4931 5.44444 19.3837 5.52951 19.2622 5.60243C19.1406 5.67535 19.0069 5.73611 18.8611 5.78472L18.6667 6.80556H17.3056ZM17.9861 4.61806C17.9861 4.61806 18.0712 4.61806 18.2413 4.61806C18.4115 4.61806 18.614 4.50058 18.849 4.26562C19.0839 4.03067 19.2014 3.74306 19.2014 3.40278C19.2014 3.0625 19.0839 2.77488 18.849 2.53993C18.614 2.30498 18.3264 2.1875 17.9861 2.1875C17.6458 2.1875 17.3582 2.30498 17.1233 2.53993C16.8883 2.77488 16.7708 3.0625 16.7708 3.40278C16.7708 3.74306 16.8883 4.03067 17.1233 4.26562C17.3582 4.50058 17.6458 4.61806 17.9861 4.61806Z" fill="#00327D"/>
</svg>
